HIERARCHY
ROOT Hips
{
    OFFSET   0.000000   0.000000   0.000000
    CHANNELS 6 Xposition Yposition Zposition Zrotation Xrotation Yrotation
    JOINT Chest
    {
        OFFSET   0.000000   8.007230   0.000000
        CHANNELS 3 Zrotation Xrotation Yrotation
        JOINT Chest2
        {
            OFFSET   0.000000  22.077100   0.000000
            CHANNELS 3 Zrotation Xrotation Yrotation
            JOINT Neck
            {
                OFFSET   0.000000  23.255100   0.000000
                CHANNELS 3 Zrotation Xrotation Yrotation
                JOINT Head
                {
                    OFFSET   0.000000  14.370100   1.956600
                    CHANNELS 3 Zrotation Xrotation Yrotation
                    End Site
                    {
                        OFFSET   0.000000  19.566000   0.000000
                    }
                }
            }
            JOINT LeftCollar
            {
                OFFSET   3.911900  19.017000  -0.467063
                CHANNELS 3 Zrotation Xrotation Yrotation
                JOINT LeftShoulder
                {
                    OFFSET  10.383700   0.000000   0.000000
                    CHANNELS 3 Zrotation Xrotation Yrotation
                    JOINT LeftElbow
                    {
                        OFFSET  26.662100   0.001193   0.000980
                        CHANNELS 3 Zrotation Xrotation Yrotation
                        JOINT LeftWrist
                        {
                            OFFSET  28.869000  -0.000059  -0.000082
                            CHANNELS 3 Zrotation Xrotation Yrotation
                            JOINT LeftFinger0
                            {
                                OFFSET   2.044650  -2.323450   3.252850
                                CHANNELS 3 Zrotation Xrotation Yrotation
                                JOINT LeftFinger01
                                {
                                    OFFSET   3.088130   0.000000   0.000000
                                    CHANNELS 3 Zrotation Xrotation Yrotation
                                    JOINT LeftFinger02
                                    {
                                        OFFSET   2.639460   0.000000   0.000000
                                        CHANNELS 3 Zrotation Xrotation Yrotation
                                        End Site
                                        {
                                            OFFSET   2.582190   0.000000   0.000000
                                        }
                                    }
                                }
                            }
                            JOINT LeftFinger1
                            {
                                OFFSET   8.364480   0.000000   3.252850
                                CHANNELS 3 Zrotation Xrotation Yrotation
                                JOINT LeftFinger11
                                {
                                    OFFSET   4.646930   0.000000   0.000000
                                    CHANNELS 3 Zrotation Xrotation Yrotation
                                    JOINT LeftFinger12
                                    {
                                        OFFSET   2.323470   0.000000   0.000000
                                        CHANNELS 3 Zrotation Xrotation Yrotation
                                        End Site
                                        {
                                            OFFSET   2.273050   0.000000   0.000000
                                        }
                                    }
                                }
                            }
                            JOINT LeftFinger2
                            {
                                OFFSET   8.364490   0.000016   1.078090
                                CHANNELS 3 Zrotation Xrotation Yrotation
                                JOINT LeftFinger21
                                {
                                    OFFSET   5.111610   0.000000   0.000000
                                    CHANNELS 3 Zrotation Xrotation Yrotation
                                    JOINT LeftFinger22
                                    {
                                        OFFSET   2.788150   0.000016   0.000000
                                        CHANNELS 3 Zrotation Xrotation Yrotation
                                        End Site
                                        {
                                            OFFSET   2.727660   0.000000   0.000000
                                        }
                                    }
                                }
                            }
                            JOINT LeftFinger3
                            {
                                OFFSET   7.899780   0.000015  -1.078090
                                CHANNELS 3 Zrotation Xrotation Yrotation
                                JOINT LeftFinger31
                                {
                                    OFFSET   4.646930   0.000000   0.000000
                                    CHANNELS 3 Zrotation Xrotation Yrotation
                                    JOINT LeftFinger32
                                    {
                                        OFFSET   2.323470   0.000000   0.000000
                                        CHANNELS 3 Zrotation Xrotation Yrotation
                                        End Site
                                        {
                                            OFFSET   2.273050   0.000000   0.000000
                                        }
                                    }
                                }
                            }
                            JOINT LeftFinger4
                            {
                                OFFSET   7.435090   0.000000  -3.252850
                                CHANNELS 3 Zrotation Xrotation Yrotation
                                JOINT LeftFinger41
                                {
                                    OFFSET   3.717550   0.000000   0.000000
                                    CHANNELS 3 Zrotation Xrotation Yrotation
                                    JOINT LeftFinger42
                                    {
                                        OFFSET   1.858770   0.000000   0.000000
                                        CHANNELS 3 Zrotation Xrotation Yrotation
                                        End Site
                                        {
                                            OFFSET   1.818440   0.000000   0.000000
                                        }
                                    }
                                }
                            }
                        }
                    }
                }
            }
            JOINT RightCollar
            {
                OFFSET  -3.911910  19.017000  -0.467062
                CHANNELS 3 Zrotation Xrotation Yrotation
                JOINT RightShoulder
                {
                    OFFSET -10.383700   0.000014   0.000000
                    CHANNELS 3 Zrotation Xrotation Yrotation
                    JOINT RightElbow
                    {
                        OFFSET -26.662100   0.001225   0.001091
                        CHANNELS 3 Zrotation Xrotation Yrotation
                        JOINT RightWrist
                        {
                            OFFSET -28.869000  -0.000020  -0.000085
                            CHANNELS 3 Zrotation Xrotation Yrotation
                            JOINT RightFinger0
                            {
                                OFFSET  -2.044650  -2.323490   3.252850
                                CHANNELS 3 Zrotation Xrotation Yrotation
                                JOINT RightFinger01
                                {
                                    OFFSET  -3.088130   0.000000   0.000000
                                    CHANNELS 3 Zrotation Xrotation Yrotation
                                    JOINT RightFinger02
                                    {
                                        OFFSET  -2.639460   0.000000   0.000000
                                        CHANNELS 3 Zrotation Xrotation Yrotation
                                        End Site
                                        {
                                            OFFSET  -2.582190   0.000000   0.000000
                                        }
                                    }
                                }
                            }
                            JOINT RightFinger1
                            {
                                OFFSET  -8.364480   0.000000   3.252850
                                CHANNELS 3 Zrotation Xrotation Yrotation
                                JOINT RightFinger11
                                {
                                    OFFSET  -4.646930   0.000000   0.000000
                                    CHANNELS 3 Zrotation Xrotation Yrotation
                                    JOINT RightFinger12
                                    {
                                        OFFSET  -2.323470   0.000000   0.000000
                                        CHANNELS 3 Zrotation Xrotation Yrotation
                                        End Site
                                        {
                                            OFFSET  -2.273050   0.000000   0.000000
                                        }
                                    }
                                }
                            }
                            JOINT RightFinger2
                            {
                                OFFSET  -8.364480   0.000000   1.078090
                                CHANNELS 3 Zrotation Xrotation Yrotation
                                JOINT RightFinger21
                                {
                                    OFFSET  -5.111620   0.000000   0.000000
                                    CHANNELS 3 Zrotation Xrotation Yrotation
                                    JOINT RightFinger22
                                    {
                                        OFFSET  -2.788160   0.000000   0.000000
                                        CHANNELS 3 Zrotation Xrotation Yrotation
                                        End Site
                                        {
                                            OFFSET  -2.727660   0.000000   0.000000
                                        }
                                    }
                                }
                            }
                            JOINT RightFinger3
                            {
                                OFFSET  -7.899780   0.000000  -1.078090
                                CHANNELS 3 Zrotation Xrotation Yrotation
                                JOINT RightFinger31
                                {
                                    OFFSET  -4.646930   0.000000   0.000000
                                    CHANNELS 3 Zrotation Xrotation Yrotation
                                    JOINT RightFinger32
                                    {
                                        OFFSET  -2.323470   0.000000   0.000000
                                        CHANNELS 3 Zrotation Xrotation Yrotation
                                        End Site
                                        {
                                            OFFSET  -2.273050   0.000000   0.000000
                                        }
                                    }
                                }
                            }
                            JOINT RightFinger4
                            {
                                OFFSET  -7.435090   0.000000  -3.252850
                                CHANNELS 3 Zrotation Xrotation Yrotation
                                JOINT RightFinger41
                                {
                                    OFFSET  -3.717550   0.000000   0.000000
                                    CHANNELS 3 Zrotation Xrotation Yrotation
                                    JOINT RightFinger42
                                    {
                                        OFFSET  -1.858760   0.000000   0.000000
                                        CHANNELS 3 Zrotation Xrotation Yrotation
                                        End Site
                                        {
                                            OFFSET  -1.818440   0.000000   0.000000
                                        }
                                    }
                                }
                            }
                        }
                    }
                }
            }
        }
    }
    JOINT LeftHip
    {
        OFFSET   9.783030   0.000000   0.000000
        CHANNELS 3 Zrotation Xrotation Yrotation
        JOINT LeftKnee
        {
            OFFSET   0.000063 -41.789100   0.000608
            CHANNELS 3 Zrotation Xrotation Yrotation
            JOINT LeftAnkle
            {
                OFFSET   0.000048 -41.133200  -0.000184
                CHANNELS 3 Zrotation Xrotation Yrotation
                JOINT LeftToe
                {
                    OFFSET   0.000000  -6.358960  14.674500
                    CHANNELS 3 Zrotation Xrotation Yrotation
                    End Site
                    {
                        OFFSET   0.000000   0.000000   3.913200
                    }
                }
            }
        }
    }
    JOINT RightHip
    {
        OFFSET  -9.783030   0.000000   0.000000
        CHANNELS 3 Zrotation Xrotation Yrotation
        JOINT RightKnee
        {
            OFFSET   0.000071 -41.789100   0.001239
            CHANNELS 3 Zrotation Xrotation Yrotation
            JOINT RightAnkle
            {
                OFFSET   0.000037 -41.133200  -0.000166
                CHANNELS 3 Zrotation Xrotation Yrotation
                JOINT RightToe
                {
                    OFFSET   0.000000  -6.358960  14.674500
                    CHANNELS 3 Zrotation Xrotation Yrotation
                    End Site
                    {
                        OFFSET   0.000000   0.000000   3.913200
                    }
                }
            }
        }
    }
}
MOTION
Frames: 4
Frame Time:   0.016667
  0.092806  89.605600   1.242580  -3.347150  -8.660820  -3.385710   0.882724   5.561900   0.213330   1.757050  11.126400   0.342502   1.900400  -0.005693   0.001636   3.120140  -0.011201   1.947120  -5.036820  -1.008060   3.242680 -73.809800  18.327000  -3.689720  -1.316500  -4.366170 -18.574000  17.091800  -6.573100   6.194430  36.884800  29.166400 -53.444400 -33.987700  -0.005277  -0.003489 -11.993900   0.002415  -0.036599 -32.241000   7.239940 -11.287700 -26.963900   0.017071  -0.002332 -18.871500   0.011997   0.001390 -28.729100  -0.095417   0.178229 -39.864000   0.032545   0.007773 -26.558500   0.017743   0.013552 -28.719600  -0.095402   0.178235 -39.746700   0.016079   0.001442 -26.471300   0.009864   0.004313 -34.434400  -0.112187   0.167632 -51.651800   0.011370   0.006029 -34.400100   0.004480   0.004974  10.101800   0.975457   6.322770  68.374900  17.532800  -0.799414  -4.489670  -2.203670  18.233400  -9.963690  -4.612910   0.657164 -39.119600  35.176600  66.968300  33.022900   0.002421  -0.001459  11.508600  -0.002192  -0.002466  32.579200  10.119600  15.374100  27.776100  -0.002234   0.004394  19.430300   0.003415   0.003558  28.552500   2.410260   4.418030  38.199400   0.000592  -0.011898  25.440800  -0.001330  -0.001274  28.419400   2.267630   4.181160  36.230100  -0.007279   0.006903  24.129200  -0.003069  -0.002718  35.281900   0.172721   0.244096  52.923500  -0.014114   0.002290  35.247100   0.005938   0.004432   2.055160  10.258800   2.654830   0.995482   0.104815   4.025640  -1.134160  -2.725790  -0.554964   0.000000   0.000000  -0.000000   4.887400   8.512840  -0.367143  -2.440070   3.441940  -4.328150   0.055272  -4.021630   2.436530   0.000000   0.000000   0.000000
  0.089190  89.605600   1.251330  -3.348590  -8.662300  -3.385460   0.883310   5.562000   0.211552   1.758470  11.126600   0.338854   1.898750  -0.009368   0.001602   3.118080  -0.018613   1.936640  -5.041700  -1.001840   3.240740 -73.811300  18.334000  -3.683000  -1.320100  -4.382080 -18.536200  17.091500  -6.568300   6.202760  36.863000  29.142700 -53.442500 -33.998500  -0.005304  -0.003504 -11.999300   0.002415  -0.041454 -32.241100   7.239730 -11.288300 -26.964100   0.025966  -0.013077 -18.871700   0.020047  -0.004780 -28.729100  -0.095419   0.177372 -39.870900   0.055430  -0.006216 -26.558500   0.036138   0.009477 -28.719600  -0.095402   0.177380 -39.738500   0.027365  -0.007928 -26.465900   0.018347   0.000195 -34.430000  -0.112187   0.166837 -51.645300   0.026627   0.001033 -34.395800   0.015025   0.005219  10.126900   0.933832   6.354720  68.339600  17.521900  -0.852197  -4.485220  -2.196780  18.199900  -9.976250  -4.594760   0.692780 -39.107100  35.164600  66.969900  33.026500   0.002413  -0.001438  11.511600  -0.002198  -0.002464  32.572900  10.124000  15.384800  27.771800  -0.002227   0.004389  19.430100   0.003413   0.003555  28.550600   2.422910   4.441640  38.173800   0.000589  -0.011904  25.423800  -0.001327  -0.001278  28.417800   2.279340   4.203190  36.209800  -0.007271   0.006901  24.115700  -0.003067  -0.002741  35.256800   0.178648   0.252713  52.885900  -0.014126   0.002286  35.222000   0.005935   0.004424   2.056730  10.286700   2.655670   0.995379   0.060607   4.025690  -1.132540  -2.709820  -0.562458   0.000000   0.000000  -0.000000   4.894100   8.519090  -0.367094  -2.440280   3.442660  -4.326230   0.050457  -4.028730   2.434340   0.000000   0.000000   0.000000
  0.082931  89.605600   1.266240  -3.351580  -8.666540  -3.385250   0.886323   5.562110   0.208306   1.764790  11.126800   0.332014   1.888490  -0.018625   0.001568   3.102560  -0.037385   1.912090  -5.050530  -0.987181   3.237030 -73.813800  18.346200  -3.672000  -1.328710  -4.410020 -18.474000  17.087600  -6.558260   6.214070  36.843200  29.113700 -53.449800 -34.016000  -0.005331  -0.003520 -12.008000   0.002413  -0.046309 -32.241000   7.239480 -11.291000 -26.964300   0.034862  -0.028805 -18.871900   0.028096  -0.014286 -28.729100  -0.095420   0.174022 -39.877700   0.078314  -0.026559 -26.558500   0.054533   0.001888 -28.719600  -0.095401   0.174033 -39.722600   0.039320  -0.022287 -26.455200   0.029220  -0.006717 -34.419800  -0.112187   0.163708 -51.629900   0.048319  -0.007633 -34.385600   0.030556   0.005463  10.165600   0.870477   6.402070  68.274800  17.511000  -0.929129  -4.481290  -2.190040  18.152800 -10.012900  -4.562030   0.757647 -39.085300  35.149400  66.966200  33.041000   0.002404  -0.001417  11.520500  -0.002203  -0.002463  32.563200  10.128400  15.395600  27.765600  -0.002213   0.004376  19.430000   0.003410   0.003547  28.548700   2.435570   4.465260  38.133400   0.000581  -0.011920  25.396900  -0.001320  -0.001288  28.416200   2.291060   4.225230  36.181900  -0.007251   0.006897  24.097200  -0.003065  -0.002795  35.221800   0.186906   0.264722  52.833400  -0.014157   0.002274  35.187100   0.005926   0.004403   2.061070  10.329600   2.656640   0.995342  -0.001629   4.026080  -1.130900  -2.692570  -0.569951   0.000000   0.000000  -0.000000   4.904700   8.531200  -0.367051  -2.440600   3.444660  -4.321860   0.043325  -4.040470   2.430180   0.000000   0.000000  -0.000000
  0.077378  89.605600   1.279180  -3.355680  -8.673960  -3.386010   0.893199   5.560800   0.205169   1.778890  11.124100   0.325053   1.866380  -0.031709   0.001577   3.066520  -0.064143   1.877730  -5.059460  -0.964530   3.232680 -73.817700  18.354500  -3.661990  -1.341450  -4.435860 -18.426200  17.077500  -6.546820   6.217770  36.835800  29.108700 -53.475700 -34.029300  -0.005324  -0.003519 -12.014700   0.002398  -0.037351 -32.240300   7.239820 -11.296000 -26.964300   0.033169  -0.037993 -18.872000   0.027664  -0.020587 -28.729200  -0.091961   0.166558 -39.871400   0.073436  -0.037982 -26.554400   0.053501  -0.008092 -28.719700  -0.091944   0.166571 -39.704600   0.040100  -0.032874 -26.443200   0.032008  -0.013771 -34.404600  -0.108155   0.156722 -51.607100   0.058799  -0.017316 -34.370400   0.039959   0.005402  10.187800   0.836859   6.425540  68.210800  17.510900  -0.966122  -4.483350  -2.190460  18.131600 -10.081000  -4.535670   0.823847 -39.061200  35.144100  66.947300  33.081100   0.002410  -0.001459  11.540800  -0.002200  -0.002467  32.565500  10.108800  15.366100  27.763300  -0.002201   0.004357  19.431400   0.003413   0.003535  28.550700   2.422490   4.441530  38.108700   0.000565  -0.011945  25.380400  -0.001309  -0.001307  28.416600   2.290740   4.224730  36.175900  -0.007222   0.006895  24.093200  -0.003066  -0.002873  35.211400   0.189356   0.268287  52.817800  -0.014203   0.002251  35.176700   0.005912   0.004372   2.068640  10.362000   2.654260   0.995715  -0.029535   4.028770  -1.133920  -2.691080  -0.569575  -0.000000   0.000000   0.000000   4.912310   8.544630  -0.367210  -2.440740   3.448430  -4.316040   0.039773  -4.050060   2.424430   0.000000   0.000000   0.000000
